<?xml version="1.0" encoding="UTF-8"?>
<svg version="1.1" xmlns="http://www.w3.org/2000/svg" width="477" height="316">
<path d="M0 0 C1.31948135 -0.00687332 2.63896271 -0.01374664 3.99842834 -0.02082825 C5.45372581 -0.00313454 6.9090175 0.01503948 8.36430359 0.03364563 C9.9019669 0.03505651 11.43963357 0.03426334 12.97729492 0.03143311 C17.14658307 0.02999908 21.31515133 0.05938605 25.48427224 0.09430289 C29.84310518 0.12556897 34.2019548 0.12849732 38.56088257 0.13442993 C46.81279553 0.14996767 55.0643771 0.19099509 63.31614417 0.24117738 C72.71143958 0.29707309 82.10675085 0.3245579 91.50217116 0.34965456 C110.82709 0.40191108 130.15170042 0.48985192 149.47636414 0.60127258 C149.52694378 8.11263667 149.56204671 15.62395708 149.58622742 23.13545227 C149.59630452 25.69243511 149.60996639 28.24940638 149.62724304 30.80635071 C149.65141631 34.4749995 149.66282999 38.14349637 149.67167664 41.81221008 C149.68199921 42.96119781 149.69232178 44.11018555 149.70295715 45.29399109 C149.70310822 46.35493988 149.70325928 47.41588867 149.70341492 48.50898743 C149.70785614 49.44608551 149.71229736 50.38318359 149.71687317 51.34867859 C149.47636414 53.60127258 149.47636414 53.60127258 147.47636414 55.60127258 C145.07507133 55.84736824 145.07507133 55.84736824 141.99684143 55.84178162 C140.25098755 55.84590561 140.25098755 55.84590561 138.46986389 55.85011292 C137.18665253 55.84292236 135.90344116 55.83573181 134.5813446 55.82832336 C133.22146106 55.82775944 131.86157691 55.82807544 130.50169373 55.82920837 C126.80352997 55.82978364 123.10549521 55.81800135 119.40736151 55.80406046 C115.54496249 55.79158196 111.68256072 55.79038488 107.82014465 55.78800964 C100.50324381 55.78178638 93.18640252 55.76536416 85.86952794 55.74531066 C75.98426663 55.7188044 66.09898911 55.70798586 56.21370125 55.69630623 C40.63454424 55.67748413 25.05551294 55.63764414 9.47636414 55.60127258 C9.47636414 79.36127258 9.47636414 103.12127258 9.47636414 127.60127258 C19.51558289 127.58773743 19.51558289 127.58773743 29.75761414 127.57392883 C34.00509726 127.58377015 38.25237646 127.59566578 42.49980164 127.61494446 C49.23727747 127.64533011 55.97418134 127.66822842 62.7117157 127.64595032 C68.14561982 127.62845947 73.5784625 127.64503876 79.01223755 127.68494987 C81.08217541 127.69422298 83.15220548 127.69135075 85.22210693 127.67596626 C88.12899963 127.65646386 91.03256338 127.68067851 93.93925476 127.71479797 C94.78946198 127.69898178 95.63966919 127.68316559 96.51564026 127.66687012 C103.45494101 127.82294752 106.78357657 130.7073751 111.47636414 135.60127258 C112.60363419 136.66568573 112.60363419 136.66568573 113.75367737 137.75160217 C114.35165131 138.34878052 114.94962524 138.94595886 115.5657196 139.56123352 C116.25938629 140.25174805 116.95305298 140.94226257 117.66773987 141.65370178 C118.74476669 142.73376495 118.74476669 142.73376495 119.84355164 143.83564758 C120.60435028 144.5954895 121.36514893 145.35533142 122.14900208 146.13819885 C123.74177275 147.73029392 125.333301 149.32363284 126.92362976 150.91816711 C129.36194738 153.36187924 131.80560684 155.80015907 134.24980164 158.23799133 C135.80220603 159.79105589 137.35430054 161.34443028 138.90605164 162.89814758 C139.6362149 163.62628662 140.36637817 164.35442566 141.1186676 165.10462952 C142.13079819 166.12148834 142.13079819 166.12148834 143.16337585 167.15888977 C143.75657623 167.75288574 144.34977661 168.34688171 144.96095276 168.95887756 C150.3986163 174.85218921 149.62659055 182.83665747 149.63749695 190.41645813 C149.64246185 191.25815552 149.64742676 192.09985291 149.65254211 192.96705627 C149.66703181 195.72404319 149.6739402 198.48097276 149.67948914 201.23799133 C149.6837302 202.65737472 149.6837302 202.65737472 149.68805695 204.10543251 C149.7029888 209.10380452 149.71225868 214.10214807 149.71659851 219.10054016 C149.72210314 224.25878755 149.74618998 229.41677365 149.77457047 234.57493877 C149.79318646 238.54948701 149.79840169 242.5239718 149.79993439 246.49855995 C149.80295908 248.40075435 149.81098141 250.30294768 149.82411957 252.20509911 C149.84117335 254.86169414 149.8393026 257.51764308 149.83280945 260.17427063 C149.84663162 261.3487249 149.84663162 261.3487249 149.86073303 262.54690552 C149.81314462 268.76205541 148.15717665 271.76025338 144.05839539 276.24971008 C142.68747742 277.59935852 142.68747742 277.59935852 141.28886414 278.97627258 C140.55530701 279.70016174 140.55530701 279.70016174 139.80693054 280.43867493 C136.46307114 283.71243705 133.00553265 286.81326622 129.44902039 289.85127258 C125.61543501 293.25215624 122.06934429 296.9502371 118.47636414 300.60127258 C117.70677526 301.35360011 116.93718637 302.10592764 116.14427662 302.88105297 C113.44944162 305.55249073 113.44944162 305.55249073 111.11627483 308.45190144 C106.42562893 313.85774202 102.85053574 317.25730762 95.38305664 317.92407227 C92.66421666 317.95584205 89.98820446 317.92967188 87.27445984 317.85005188 C85.77532176 317.84694248 84.27616699 317.8487036 82.77703857 317.85491943 C78.73912996 317.85805392 74.70487396 317.79376009 70.66780877 317.7166059 C66.43729091 317.64746473 62.20667318 317.64135078 57.97567749 317.62832642 C49.97831752 317.59424534 41.98262746 317.50413143 33.98600024 317.39348203 C24.87611911 317.27018666 15.76615481 317.20996474 6.65564597 317.15483224 C-12.07191815 317.04009944 -30.79719542 316.83851774 -49.52363586 316.60127258 C-49.52363586 297.79127258 -49.52363586 278.98127258 -49.52363586 259.60127258 C-4.64363586 259.27127258 40.23636414 258.94127258 86.47636414 258.60127258 C86.97136414 223.95127258 86.97136414 223.95127258 87.47636414 188.60127258 C80.80675476 188.69408508 74.13714539 188.78689758 67.26542664 188.88252258 C63.0270827 188.92342411 58.78898385 188.96193635 54.55058289 188.99189758 C47.83050176 189.03962778 41.11129687 189.09594414 34.39189148 189.20478821 C28.97124544 189.29203974 23.55153955 189.33961525 18.13024521 189.36029053 C16.06737349 189.3750143 14.00455029 189.4037675 11.94208145 189.44711304 C-6.23497587 189.8137573 -6.23497587 189.8137573 -12.47798157 184.93208313 C-13.87041795 183.53076126 -15.22466063 182.08964264 -16.52363586 180.60127258 C-17.6340188 179.5530197 -18.75034904 178.51100456 -19.87446594 177.47749329 C-20.85251759 176.49913614 -21.82543373 175.51561836 -22.79316711 174.52705383 C-23.32206039 173.99533066 -23.85095367 173.46360748 -24.39587402 172.91577148 C-26.04749526 171.25317866 -27.69195292 169.58371804 -29.33613586 167.91377258 C-30.45219517 166.78764845 -31.56872933 165.66199473 -32.68574524 164.53681946 C-34.73336301 162.47304953 -36.77820171 160.40661379 -38.81977844 158.33686829 C-43.35344754 153.64532361 -43.35344754 153.64532361 -48.14001083 149.22280407 C-49.90463786 147.15475946 -49.93012724 146.01933389 -49.99879456 143.32400513 C-50.02748627 142.45110336 -50.05617798 141.5782016 -50.08573914 140.67884827 C-50.10166107 139.72359253 -50.11758301 138.76833679 -50.13398743 137.78413391 C-50.16173248 136.77551804 -50.18947754 135.76690216 -50.21806335 134.72772217 C-50.30288782 131.37968036 -50.36215261 128.03200885 -50.41426086 124.68330383 C-50.4327282 123.53657385 -50.45119553 122.38984386 -50.47022247 121.20836449 C-50.56220929 115.12759613 -50.63043611 109.04699583 -50.68379211 102.96577454 C-50.73258435 97.95225051 -50.82972057 92.94335357 -50.97090149 87.93159485 C-51.14164153 81.86501283 -51.22699013 75.80265892 -51.25336456 69.73378563 C-51.27704594 67.43270746 -51.32955898 65.1317216 -51.41274261 62.83202553 C-52.05764043 43.95474496 -52.05764043 43.95474496 -45.86750793 36.76445007 C-42.37655984 33.26544252 -38.61611689 30.22787281 -34.65950775 27.27461815 C-31.30362512 24.64545703 -28.40183641 21.61486059 -25.46113586 18.53877258 C-21.55350445 14.56900933 -17.57986244 10.73920754 -13.30488586 7.16377258 C-11.35803961 5.52932676 -11.35803961 5.52932676 -9.32003498 3.04119587 C-5.91654552 0.07157214 -4.45333815 -0.01791367 0 0 Z " fill="#F9F9F8" transform="translate(49.52363586425781,-0.6012725830078125)"/>
<path d="M0 0 C19.14 0 38.28 0 58 0 C58.15434632 33.24110987 58.28358406 66.48187174 58.35745731 99.72323218 C58.36621215 103.64849656 58.37527242 107.57376019 58.38452148 111.49902344 C58.38635766 112.28046602 58.38819383 113.06190861 58.39008565 113.86703128 C58.42053713 126.51673739 58.47572473 139.1662206 58.54006957 151.81579453 C58.60555217 164.79740171 58.64441605 177.77889223 58.65861946 190.76065779 C58.66821995 198.76993778 58.69853045 206.77858774 58.75541527 214.78767377 C58.7968248 220.93122226 58.80118087 227.07429138 58.79175377 233.21796036 C58.79368015 235.73667911 58.80761257 238.25542163 58.83443832 240.77399826 C58.86928245 244.21401905 58.86089051 247.65134724 58.84178162 251.09143066 C58.86217151 252.08755639 58.8825614 253.08368211 58.90356916 254.10999346 C58.80638942 260.58461313 57.29007883 263.83334451 52.72037536 268.43931097 C50.82165301 270.16179271 48.93457587 271.85354597 46.90722656 273.42407227 C43.30319225 276.48384964 41.19662345 279.63681278 38.90490723 283.73847961 C30.93133011 297.63853766 19.64946819 310.93027911 4 316 C-14.08006946 320.16177037 -33.32431908 319.37956963 -51.75 319.125 C-52.98621597 319.11445965 -54.22243195 319.1039193 -55.49610901 319.09305954 C-62.75375801 319.02834892 -70.00039749 318.87320886 -77.25263977 318.5823307 C-79.50935325 318.49189796 -81.76661097 318.4140567 -84.0242157 318.34959984 C-103.18698396 317.71567713 -103.18698396 317.71567713 -109.33098221 312.04476738 C-111.39180447 309.82216084 -113.19365415 307.43109215 -115 305 C-116.88479686 303.26940125 -116.88479686 303.26940125 -118.6875 301.9375 C-119.450625 301.298125 -120.21375 300.65875 -121 300 C-121 299.34 -121 298.68 -121 298 C-121.59769196 297.72697052 -122.19538391 297.45394104 -122.81118774 297.17263794 C-124.93747413 296.03349771 -126.32298241 294.93027236 -128.02099609 293.23779297 C-128.58192963 292.68316376 -129.14286316 292.12853455 -129.72079468 291.55709839 C-130.31566681 290.9581778 -130.91053894 290.3592572 -131.5234375 289.7421875 C-132.45913071 288.80936447 -132.45913071 288.80936447 -133.41372681 287.85769653 C-134.73238047 286.5404025 -136.04851724 285.22058483 -137.36230469 283.8984375 C-139.3539759 281.89613631 -141.35598131 279.90462658 -143.359375 277.9140625 C-144.64387022 276.62824424 -145.92774413 275.34180495 -147.2109375 274.0546875 C-147.80176117 273.46791229 -148.39258484 272.88113708 -149.00131226 272.27658081 C-150.70765449 270.55127417 -152.35321116 268.7821182 -154 267 C-154.52981413 266.46467998 -155.05962826 265.92935995 -155.60549736 265.37781811 C-161.01091099 259.25290513 -160.85303793 253.42990047 -160.77636719 245.53491211 C-160.78451007 244.18548388 -160.79520026 242.836069 -160.80822754 241.48667908 C-160.83545078 237.84183474 -160.8250317 234.19801568 -160.80595303 230.55315471 C-160.79069772 226.72873339 -160.80486786 222.9043963 -160.81427002 219.07997131 C-160.82516601 212.6601698 -160.81085173 206.24078333 -160.78222656 199.82104492 C-160.74956211 192.41006552 -160.76016459 185.00007631 -160.793185 177.58912081 C-160.82045362 171.21259615 -160.82423587 164.83636875 -160.80855298 158.45980459 C-160.79922261 154.65724659 -160.7978853 150.85515338 -160.81777191 147.05262566 C-160.83516536 143.47754978 -160.82297516 139.90374511 -160.78840637 136.32880592 C-160.77675039 134.39913279 -160.79446254 132.46935153 -160.81317139 130.53973389 C-160.6746928 121.05176608 -160.6746928 121.05176608 -157.07110596 116.78077698 C-156.07636769 115.82283506 -155.05589589 114.8900791 -154 114 C-153.36835938 113.39671875 -152.73671875 112.7934375 -152.0859375 112.171875 C-151.52132813 111.70265625 -150.95671875 111.2334375 -150.375 110.75 C-140.05096069 101.99501853 -130.4418948 92.56068206 -120.9375 82.9375 C-118.74119809 80.71453392 -116.5415202 78.4949853 -114.33984375 76.27734375 C-113.59926979 75.52432228 -113.59926979 75.52432228 -112.84373474 74.75608826 C-110.64827628 72.54491767 -108.60620296 70.73746864 -106 69 C-102.48275862 69.51724138 -102.48275862 69.51724138 -101 71 C-99.95067583 79.40790749 -99.86114324 87.87439931 -99.90234375 96.33496094 C-99.90380402 97.49329437 -99.90526428 98.65162781 -99.9067688 99.84506226 C-99.91054792 102.34008975 -99.91663555 104.83511465 -99.92483521 107.33013153 C-99.93775836 111.31402087 -99.94430335 115.29789431 -99.94897461 119.28179932 C-99.96093193 128.48255534 -99.98276965 137.68328244 -100.00520325 146.88401794 C-100.04928833 165.00402837 -100.07322108 183.12336305 -100.01660156 201.2434082 C-100.00376214 205.44193583 -100.00138798 209.64009914 -100.01464844 213.83862305 C-100.02635381 217.85765477 -100.00792644 221.8749731 -99.95626831 225.89368439 C-99.93837226 227.85741255 -99.95380685 229.82136031 -99.97094727 231.78509521 C-99.83167394 238.76573708 -98.79370348 242.54831477 -93.70428467 247.46492004 C-93.14187073 247.97149643 -92.57945679 248.47807281 -92 249 C-88.25 253.4375 -88.25 253.4375 -86.578125 255.43359375 C-83.56978345 258.41959613 -80.26908601 258.13478163 -76.26269531 258.16113281 C-74.49505829 258.17554413 -74.49505829 258.17554413 -72.69171143 258.19024658 C-70.77923615 258.1966214 -70.77923615 258.1966214 -68.828125 258.203125 C-66.86175079 258.21167511 -66.86175079 258.21167511 -64.85565186 258.22039795 C-62.07824313 258.23089958 -59.30086328 258.23674721 -56.5234375 258.24023438 C-52.97831219 258.24570681 -49.43357334 258.269711 -45.88856888 258.29820633 C-42.49342882 258.32140715 -39.09834017 258.3232877 -35.703125 258.328125 C-34.4362384 258.3404718 -33.16935181 258.3528186 -31.86407471 258.36553955 C-23.67752373 258.34491154 -18.41831217 257.89035296 -12.015625 252.4765625 C-11.10296875 251.53554687 -10.1903125 250.59453125 -9.25 249.625 C-8.32703125 248.68914062 -7.4040625 247.75328125 -6.453125 246.7890625 C-1.25840617 240.88296498 -0.5607028 236.98619416 -0.60127258 229.32536316 C-0.59462576 228.34512202 -0.58797893 227.36488088 -0.58113068 226.35493547 C-0.56246539 223.06749167 -0.5651084 219.7804107 -0.56762695 216.49291992 C-0.55861197 214.13752731 -0.54828541 211.7821394 -0.53674316 209.42675781 C-0.5091162 203.0284853 -0.49988087 196.63030167 -0.49388909 190.23197722 C-0.48688988 184.22396376 -0.46334306 178.21599966 -0.44127061 172.20802668 C-0.39800211 160.30903069 -0.36803573 148.41003993 -0.34643555 136.51098633 C-0.32542604 124.95301749 -0.29815121 113.39509141 -0.26245117 101.8371582 C-0.26025235 101.12457988 -0.25805352 100.41200155 -0.25578807 99.67782994 C-0.24471842 96.10298976 -0.23352561 92.52814998 -0.22227156 88.95331037 C-0.12908555 59.30223897 -0.0599388 29.65116122 0 0 Z " fill="#FBFBFA" transform="translate(419,0)"/>
<path d="M0 0 C1.02814316 0.00222061 2.05628632 0.00444122 3.11558533 0.00672913 C4.85727745 0.00684242 4.85727745 0.00684242 6.63415527 0.00695801 C8.52943214 0.01469994 8.52943214 0.01469994 10.46299744 0.02259827 C12.39193092 0.02472069 12.39193092 0.02472069 14.35983276 0.02688599 C17.78427561 0.03071034 21.20867628 0.0405399 24.63310242 0.05158997 C28.12522308 0.06180587 31.61735053 0.06638399 35.10948181 0.07142639 C41.96561897 0.08216225 48.82172806 0.09923767 55.67784119 0.12025452 C58.37225781 26.3160159 58.37225781 26.3160159 55.46690369 32.83900452 C53.68312789 34.88239088 51.81317393 36.44929003 49.67784119 38.12025452 C48.01912888 39.79509693 46.37399034 41.48345641 44.74034119 43.18275452 C41.23684128 46.64943085 37.65588434 49.95947802 33.91612244 53.16712952 C31.08036304 55.64161415 28.31542325 58.18987637 25.55284119 60.74525452 C25.00587585 61.24960022 24.45891052 61.75394592 23.89537048 62.27357483 C20.87572003 65.06389025 17.8789197 67.87559746 14.90440369 70.71400452 C14.28194763 71.30358948 13.65949158 71.89317444 13.01817322 72.50062561 C11.81816651 73.63822815 10.62353926 74.78154047 9.43516541 75.93128967 C6.35554566 78.84097443 3.82620355 80.86645843 -0.32215881 82.12025452 C-2.76651584 79.67589749 -2.60994034 78.96072722 -2.73622131 75.59291077 C-2.77505432 74.59686829 -2.81388733 73.60082581 -2.85389709 72.57460022 C-2.88467346 71.45529114 -2.91544983 70.33598206 -2.94715881 69.18275452 C-2.98438049 68.00737122 -3.02160217 66.83198792 -3.05995178 65.62098694 C-3.42332615 52.06142971 -3.42903308 38.49633776 -3.44715881 24.93275452 C-3.44983765 23.76664642 -3.45251648 22.60053833 -3.45527649 21.39909363 C-3.46108317 18.06262537 -3.45942494 14.72625442 -3.45497131 11.38978577 C-3.45694519 10.36810303 -3.45891907 9.34642029 -3.46095276 8.29377747 C-3.45785095 7.36228882 -3.45474915 6.43080017 -3.45155334 5.47108459 C-3.45075775 4.65174942 -3.44996216 3.83241425 -3.44914246 2.98825073 C-3.25738934 0.16746154 -2.82534434 0.14631231 0 0 Z " fill="#F7F7F7" transform="translate(262.32215881347656,-0.1202545166015625)"/>
<path d="M0 0 C0.99 0 1.98 0 3 0 C3.05057965 7.51136408 3.08568257 15.02268449 3.10986328 22.53417969 C3.11994038 25.09116253 3.13360226 27.64813379 3.15087891 30.20507812 C3.17505217 33.87372692 3.18646585 37.54222379 3.1953125 41.2109375 C3.20563507 42.35992523 3.21595764 43.50891296 3.22659302 44.69271851 C3.22674408 45.7536673 3.22689514 46.81461609 3.22705078 47.90771484 C3.231492 48.84481293 3.23593323 49.78191101 3.24050903 50.74740601 C3 53 3 53 1 55 C-1.4012928 55.24609566 -1.4012928 55.24609566 -4.47952271 55.24050903 C-6.22537659 55.24463303 -6.22537659 55.24463303 -8.00650024 55.24884033 C-9.28971161 55.24164978 -10.57292297 55.23445923 -11.89501953 55.22705078 C-13.25490307 55.22648686 -14.61478722 55.22680285 -15.97467041 55.22793579 C-19.67283416 55.22851106 -23.37086893 55.21672877 -27.06900263 55.20278788 C-30.93140165 55.19030937 -34.79380342 55.1891123 -38.65621948 55.18673706 C-45.97312033 55.1805138 -53.28996161 55.16409158 -60.6068362 55.14403808 C-70.4920975 55.11753182 -80.37737502 55.10671327 -90.26266289 55.09503365 C-105.8418199 55.07621155 -121.4208512 55.03637155 -137 55 C-137 78.76 -137 102.52 -137 127 C-126.96078125 126.98646484 -126.96078125 126.98646484 -116.71875 126.97265625 C-112.47126688 126.98249757 -108.22398768 126.9943932 -103.9765625 127.01367188 C-97.23908666 127.04405752 -90.5021828 127.06695584 -83.76464844 127.04467773 C-78.33074431 127.02718689 -72.89790164 127.04376617 -67.46412659 127.08367729 C-65.39418873 127.0929504 -63.32415866 127.09007817 -61.2542572 127.07469368 C-58.3473645 127.05519128 -55.44380076 127.07940593 -52.53710938 127.11352539 C-51.68690216 127.0977092 -50.83669495 127.08189301 -49.96072388 127.06559753 C-43.94164638 127.20097746 -40.93120639 129.06561233 -36.6100235 133.20694637 C-35 135 -35 135 -33 138 C-34.32 138 -35.64 138 -37 138 C-37 137.34 -37 136.68 -37 136 C-37.66 136 -38.32 136 -39 136 C-39 135.34 -39 134.68 -39 134 C-39.66 134 -40.32 134 -41 134 C-41 133.34 -41 132.68 -41 132 C-46.07892877 130.97994809 -50.95514098 130.83631671 -56.1105957 130.81054688 C-57.00719406 130.80225357 -57.90379242 130.79396027 -58.82756042 130.78541565 C-60.76563612 130.76807679 -62.70373205 130.75289343 -64.64183998 130.73963928 C-67.70490008 130.71854951 -70.76785746 130.69153611 -73.83085632 130.66296387 C-81.43163923 130.59326438 -89.03249452 130.53358934 -96.63336182 130.47393799 C-103.06829044 130.42309756 -109.50316126 130.36833035 -115.93800926 130.30812073 C-118.96323835 130.28147061 -121.98847267 130.26070905 -125.01374817 130.2401123 C-126.8546271 130.22351968 -128.69550355 130.20664877 -130.53637695 130.18945312 C-131.38362335 130.18526871 -132.23086975 130.18108429 -133.10379028 130.17677307 C-138.88614506 130.11385494 -138.88614506 130.11385494 -140 129 C-140.10025695 126.63238425 -140.13618935 124.29392927 -140.12939453 121.92578125 C-140.13114685 121.18597015 -140.13289917 120.44615906 -140.13470459 119.68392944 C-140.1391231 117.22676277 -140.13618513 114.76966747 -140.1328125 112.3125 C-140.13348554 110.61238593 -140.13445557 108.91227195 -140.13571167 107.2121582 C-140.13718864 103.64435919 -140.13503411 100.07658517 -140.13037109 96.50878906 C-140.1246738 91.92511506 -140.12795281 87.34149961 -140.13394356 82.75782776 C-140.13754919 79.24580439 -140.13641057 75.73379502 -140.13381577 72.22177124 C-140.1331465 70.53119907 -140.13397489 68.84062564 -140.13629532 67.15005493 C-140.13882189 64.79140843 -140.13498121 62.43285805 -140.12939453 60.07421875 C-140.13141876 59.36872894 -140.13344299 58.66323914 -140.13552856 57.93637085 C-140.11426271 53.11426271 -140.11426271 53.11426271 -139 52 C-137.20305962 51.90360816 -135.40229107 51.87812575 -133.60276794 51.87974548 C-131.84635483 51.87768349 -131.84635483 51.87768349 -130.05445862 51.87557983 C-128.11022255 51.88097275 -128.11022255 51.88097275 -126.12670898 51.88647461 C-124.75712079 51.88675648 -123.38753244 51.88659875 -122.01794434 51.8860321 C-118.28877052 51.88574412 -114.55962859 51.89164091 -110.83046222 51.89860606 C-106.93735587 51.90483953 -103.04424887 51.90544339 -99.15113831 51.90663147 C-91.77401854 51.90974481 -84.39691351 51.91795822 -77.01980025 51.92798096 C-68.62332457 51.93914203 -60.22684821 51.94465253 -51.83036697 51.94967639 C-34.55356798 51.96014084 -17.2767893 51.97848634 0 52 C0 34.84 0 17.68 0 0 Z " fill="#9B9B9B" transform="translate(196,0)"/>
<path d="M0 0 C0.33 0 0.66 0 1 0 C1 80.33333333 1 160.66666667 -0.79296875 246.15625 C-1.58316406 246.9296875 -2.37335938 247.703125 -3.1875 248.5 C-3.96480469 249.2734375 -4.74210937 250.046875 -5.54296875 250.84375 C-7.93183698 252.94018126 -10.15487938 254.58461226 -13 256 C-13.66 255.67 -14.32 255.34 -15 255 C-14.24074219 254.26394531 -13.48148437 253.52789062 -12.69921875 252.76953125 C-11.69504479 251.7841269 -10.69115346 250.79843448 -9.6875 249.8125 C-8.93823242 249.08836914 -8.93823242 249.08836914 -8.17382812 248.34960938 C-2.82926411 243.07583428 -0.67021608 239.55012543 -0.58658296 232.09921902 C-0.59143053 231.18384659 -0.59627811 230.26847415 -0.60127258 229.32536316 C-0.59462576 228.34512202 -0.58797893 227.36488088 -0.58113068 226.35493547 C-0.56246539 223.06749167 -0.5651084 219.7804107 -0.56762695 216.49291992 C-0.55861197 214.13752731 -0.54828541 211.7821394 -0.53674316 209.42675781 C-0.5091162 203.0284853 -0.49988087 196.63030167 -0.49388909 190.23197722 C-0.48688988 184.22396376 -0.46334306 178.21599966 -0.44127061 172.20802668 C-0.39800211 160.30903069 -0.36803573 148.41003993 -0.34643555 136.51098633 C-0.32542604 124.95301749 -0.29815121 113.39509141 -0.26245117 101.8371582 C-0.26025235 101.12457988 -0.25805352 100.41200155 -0.25578807 99.67782994 C-0.24471842 96.10298976 -0.23352561 92.52814998 -0.22227156 88.95331037 C-0.12908557 59.30224645 -0.05770966 29.65115471 0 0 Z " fill="#C4C4C4" transform="translate(419,0)"/>
<path d="M0 0 C0.33 0 0.66 0 1 0 C1.75500301 8.45486596 2.139107 16.8164847 2.09765625 25.30322266 C2.09619598 26.45834351 2.09473572 27.61346436 2.0932312 28.80358887 C2.08945193 31.292064 2.08336414 33.78053652 2.07516479 36.26900101 C2.06223671 40.24503842 2.0556951 44.22105991 2.05102539 48.19711304 C2.03906867 57.38248313 2.01725434 66.56782434 1.99479675 75.75317383 C1.96944848 86.14013142 1.94851128 96.52707898 1.9375 106.9140625 C1.9367107 107.58156556 1.9359214 108.24906862 1.93510818 108.93679905 C1.91195595 129.97391907 2.12576935 150.97980987 3 172 C1.68 171.67 0.36 171.34 -1 171 C-0.505 86.355 -0.505 86.355 0 0 Z " fill="#4B4B4B" transform="translate(317,71)"/>
<path d="M0 0 C0.598125 0.639375 1.19625 1.27875 1.8125 1.9375 C5.27045054 5.19785336 8.17610482 5.1285157 12.73730469 5.14526367 C14.50494171 5.15483345 14.50494171 5.15483345 16.30828857 5.16459656 C17.58327209 5.16570938 18.85825562 5.1668222 20.171875 5.16796875 C21.48279114 5.17129715 22.79370728 5.17462555 24.14434814 5.17805481 C26.92176129 5.18404293 29.69914335 5.18589515 32.4765625 5.18530273 C36.02160178 5.1852014 39.56643949 5.19882556 43.11143112 5.21607494 C46.50658184 5.22992768 49.90169642 5.22928544 53.296875 5.23046875 C54.5637616 5.23765427 55.83064819 5.24483978 57.13592529 5.25224304 C63.13488455 5.23674677 68.35275057 5.10546232 74 3 C73.34 4.65 72.68 6.3 72 8 C65.09977921 9.05688985 58.33622358 9.14512823 51.36328125 9.1328125 C49.56687447 9.13424759 49.56687447 9.13424759 47.73417664 9.13571167 C45.21365303 9.13638966 42.69312764 9.13456202 40.17260742 9.13037109 C36.31490167 9.12500334 32.4573116 9.1303363 28.59960938 9.13671875 C26.14583308 9.13605818 23.69205685 9.13477745 21.23828125 9.1328125 C20.08612625 9.13483673 18.93397125 9.13686096 17.74690247 9.13894653 C16.13448921 9.13421829 16.13448921 9.13421829 14.48950195 9.12939453 C13.54766556 9.12859894 12.60582916 9.12780334 11.63545227 9.12698364 C8.99755728 8.9998823 6.57149962 8.58646673 4 8 C4 7.34 4 6.68 4 6 C2.68 5.34 1.36 4.68 0 4 C0 2.68 0 1.36 0 0 Z " fill="#ECECEC" transform="translate(330,253)"/>
<path d="M0 0 C0.33 0 0.66 0 1 0 C1 24.75 1 49.5 1 75 C7.909375 74.9071875 14.81875 74.814375 21.9375 74.71875 C26.32167489 74.67786053 30.70561382 74.63934906 35.08984375 74.609375 C42.04493186 74.56159878 48.99917535 74.50515703 55.95361328 74.39648438 C61.56227858 74.30939237 67.17003795 74.26169049 72.77932739 74.24098206 C74.91641499 74.2262299 77.05345443 74.19742091 79.19015503 74.15415955 C95.99495444 73.82752901 95.99495444 73.82752901 101.13671875 76.83422852 C103.12026927 78.79679252 104.62780184 80.57961397 106 83 C104.68 83.33 103.36 83.66 102 84 C102 83.34 102 82.68 102 82 C101.34 82 100.68 82 100 82 C100 81.34 100 80.68 100 80 C99.34 80 98.68 80 98 80 C98 79.34 98 78.68 98 78 C92.91808409 76.98100606 88.03222904 76.83007871 82.87353516 76.79467773 C81.52622818 76.77982834 81.52622818 76.77982834 80.15170288 76.76467896 C77.19751578 76.73321687 74.24331262 76.70836725 71.2890625 76.68359375 C69.23497105 76.66301101 67.18088371 76.64201419 65.12680054 76.62062073 C59.73133685 76.56553642 54.33583579 76.51606718 48.94030762 76.46777344 C42.46073844 76.40860583 35.98123724 76.34245317 29.50172424 76.27747345 C19.66785783 76.17963566 9.83394698 76.09066212 0 76 C0 50.92 0 25.84 0 0 Z " fill="#D4D4D4" transform="translate(57,54)"/>
<path d="M0 0 C0.33 0 0.66 0 1 0 C1.67322413 26.33810368 2.17370734 52.65260469 2 79 C4.97 78.505 4.97 78.505 8 78 C6.68 79.32 5.36 80.64 4 82 C2.68 81.34 1.36 80.68 0 80 C-0.9588644 61.60561453 -1.11092935 43.22793692 -1.125 24.8125 C-1.12749756 23.64657318 -1.12999512 22.48064636 -1.13256836 21.27938843 C-1.13843391 17.94273877 -1.13697969 14.60618183 -1.1328125 11.26953125 C-1.13479645 10.24783844 -1.1367804 9.22614563 -1.13882446 8.17349243 C-1.13571259 7.24201385 -1.13260071 6.31053528 -1.12939453 5.35083008 C-1.12859894 4.5314949 -1.12780334 3.71215973 -1.12698364 2.86799622 C-1 1 -1 1 0 0 Z " fill="#C7C7C7" transform="translate(260,0)"/>
<path d="M0 0 C0.33 0.99 0.66 1.98 1 3 C0.43322068 3.42642477 -0.13355864 3.85284954 -0.71751308 4.29219627 C-4.08522704 7.15915499 -6.60418395 9.4795409 -7.7407856 13.84560013 C-7.98987261 17.26020547 -8.00128393 20.5989652 -7.92407227 24.02197266 C-7.92684677 25.310728 -7.92962128 26.59948334 -7.93247986 27.92729187 C-7.93901508 31.44244359 -7.89627607 34.95542618 -7.84408307 38.4701314 C-7.7975671 42.15743454 -7.79601262 45.84476666 -7.78929138 49.53231812 C-7.77185499 55.72114525 -7.72556929 61.90917612 -7.65844727 68.09765625 C-7.56392609 76.81506357 -7.52049164 85.53216656 -7.48781502 94.24999547 C-7.43873271 106.57911984 -7.36514445 118.90821981 -7.24047852 131.23681641 C-7.23150543 132.44632462 -7.22253235 133.65583282 -7.21328735 134.9019928 C-7.20035141 136.01776199 -7.18741547 137.13353119 -7.17408752 138.28311157 C-7.16461877 139.247978 -7.15515001 140.21284443 -7.14539433 141.20694923 C-6.98970193 144.19782781 -6.54467884 147.05712065 -6 150 C-8.24540176 148.24476026 -8.94494227 147.35736385 -9.38590336 144.49521255 C-9.39093089 143.48941021 -9.39595842 142.48360786 -9.40113831 141.44732666 C-9.41393326 140.29216553 -9.42672821 139.13700439 -9.43991089 137.94683838 C-9.43855133 136.6782196 -9.43719177 135.40960083 -9.43579102 134.10253906 C-9.4447671 132.75385703 -9.454975 131.40518271 -9.46632385 130.05651855 C-9.49284995 126.39101272 -9.49985855 122.72571693 -9.50177121 119.0601244 C-9.50390311 116.76900102 -9.51030686 114.47793109 -9.51826286 112.18682098 C-9.54602937 104.19059355 -9.55826732 96.19451623 -9.5559082 88.19824219 C-9.55410752 80.75050997 -9.58572731 73.30343082 -9.63313919 65.85586381 C-9.67241184 59.4582635 -9.6884579 53.06087615 -9.68654197 46.66315627 C-9.68577807 42.84368815 -9.6942705 39.02479979 -9.72607613 35.20545197 C-9.75519809 31.61002897 -9.75530662 28.0157365 -9.73352623 24.42027283 C-9.72891073 22.47855128 -9.75387939 20.53682928 -9.77984619 18.59527588 C-9.7095237 12.07664252 -9.35176302 7.93373166 -4.57984829 3.25494003 C-3.11332367 2.09001777 -1.55834342 1.03889562 0 0 Z " fill="#BDBDBD" transform="translate(268,112)"/>
<path d="M0 0 C1.32 0.33 2.64 0.66 4 1 C4 30.7 4 60.4 4 91 C3.67 91 3.34 91 3 91 C3 61.96 3 32.92 3 3 C-4.91744851 7.25937066 -4.91744851 7.25937066 -11.0625 12.8125 C-11.81660156 13.60269531 -12.57070313 14.39289063 -13.34765625 15.20703125 C-14.16556641 16.09455078 -14.16556641 16.09455078 -15 17 C-15.66 16.67 -16.32 16.34 -17 16 C-14.73328976 13.70422364 -12.46093591 11.41411478 -10.1875 9.125 C-9.22360352 8.14853516 -9.22360352 8.14853516 -8.24023438 7.15234375 C-7.61826172 6.52714844 -6.99628906 5.90195313 -6.35546875 5.2578125 C-5.78465576 4.6817627 -5.21384277 4.10571289 -4.62573242 3.51220703 C-3 2 -3 2 0 0 Z " fill="#DCDCDC" transform="translate(313,69)"/>
<path d="M0 0 C0.33 0 0.66 0 1 0 C1.66 20.79 2.32 41.58 3 63 C1.68 62.67 0.36 62.34 -1 62 C-0.67 41.54 -0.34 21.08 0 0 Z " fill="#424242" transform="translate(317,180)"/>
<path d="M0 0 C0.598125 0.639375 1.19625 1.27875 1.8125 1.9375 C5.28542121 5.21196857 8.26370772 5.13804183 12.84838867 5.20532227 C14.0494072 5.22526749 15.25042572 5.24521271 16.48783875 5.26576233 C17.78478165 5.28247482 19.08172455 5.29918732 20.41796875 5.31640625 C21.7589023 5.33698293 23.09982946 5.35797959 24.44075012 5.37937927 C27.96701889 5.43452627 31.49334548 5.48396794 35.01971436 5.53222656 C38.61931493 5.5824955 42.21883173 5.63815339 45.81835938 5.69335938 C52.87883352 5.80085071 59.93938282 5.90231565 67 6 C67 6.33 67 6.66 67 7 C46.21 7.33 25.42 7.66 4 8 C4 7.34 4 6.68 4 6 C2.68 5.34 1.36 4.68 0 4 C0 2.68 0 1.36 0 0 Z " fill="#555555" transform="translate(330,253)"/>
<path d="M0 0 C0.33 0 0.66 0 1 0 C1 11.22 1 22.44 1 34 C3.97 33.505 3.97 33.505 7 33 C5.68 34.32 4.36 35.64 3 37 C1.68 36.34 0.36 35.68 -1 35 C-1.02917237 30.47918034 -1.0468568 25.95838512 -1.0625 21.4375 C-1.07087891 20.16068359 -1.07925781 18.88386719 -1.08789062 17.56835938 C-1.09111328 16.32763672 -1.09433594 15.08691406 -1.09765625 13.80859375 C-1.10289307 12.67220459 -1.10812988 11.53581543 -1.11352539 10.36499023 C-0.99486905 6.84791433 -0.55780511 3.47228855 0 0 Z " fill="#D6D6D6" transform="translate(261,45)"/>
<path d="M0 0 C4.69539034 -0.199087 9.38828185 -0.34352352 14.08691406 -0.43945312 C15.68175077 -0.47946926 17.27629795 -0.53390506 18.87011719 -0.60351562 C32.14794355 -1.16852951 32.14794355 -1.16852951 36.87890625 1.81640625 C38.84271449 3.78021449 40.48057922 5.6803335 42 8 C40.68 8.33 39.36 8.66 38 9 C38 8.34 38 7.68 38 7 C37.34 7 36.68 7 36 7 C36 6.34 36 5.68 36 5 C35.34 5 34.68 5 34 5 C34 4.34 34 3.68 34 3 C29.73758031 2.20679475 25.62076314 1.82268505 21.2890625 1.68359375 C20.04511719 1.64169922 18.80117187 1.59980469 17.51953125 1.55664062 C16.23433594 1.51732422 14.94914063 1.47800781 13.625 1.4375 C12.31660156 1.39431641 11.00820312 1.35113281 9.66015625 1.30664062 C6.44020203 1.20087571 3.22017469 1.09878421 0 1 C0 0.67 0 0.34 0 0 Z " fill="#E5E5E6" transform="translate(121,129)"/>
<path d="M0 0 C0.33 0 0.66 0 1 0 C1 9 1 9 -0.79296875 11.15625 C-1.58316406 11.9296875 -2.37335938 12.703125 -3.1875 13.5 C-3.96480469 14.2734375 -4.74210937 15.046875 -5.54296875 15.84375 C-7.93183698 17.94018126 -10.15487938 19.58461226 -13 21 C-13.66 20.67 -14.32 20.34 -15 20 C-14.24074219 19.26394531 -13.48148437 18.52789062 -12.69921875 17.76953125 C-11.69504479 16.7841269 -10.69115346 15.79843448 -9.6875 14.8125 C-9.18798828 14.32974609 -8.68847656 13.84699219 -8.17382812 13.34960938 C-4.15662353 9.38561278 -1.04377444 5.63638195 0 0 Z " fill="#C4C4C3" transform="translate(419,235)"/>
<path d="M0 0 C0.33 0 0.66 0 1 0 C1.17376354 4.58964887 1.30038943 9.17736309 1.38452148 13.76953125 C1.41960652 15.32944098 1.46729082 16.88912241 1.52807617 18.44824219 C2.02246332 31.46017966 2.02246332 31.46017966 -0.58935547 35.39355469 C-2.52734375 37.0546875 -2.52734375 37.0546875 -6 39 C-5.29822123 35.76513406 -4.63523506 34.10818805 -2 32 C-1.34 32 -0.68 32 0 32 C0 21.44 0 10.88 0 0 Z " fill="#D8D8D8" transform="translate(316,0)"/>
<path d="M0 0 C0.8971875 0.309375 0.8971875 0.309375 1.8125 0.625 C-0.72113431 2.71152237 -3.21030945 4.63919254 -6 6.375 C-10.20894193 9.34601783 -13.63559666 12.91082696 -17.1875 16.625 C-17.8475 16.295 -18.5075 15.965 -19.1875 15.625 C-16.92078976 13.32922364 -14.64843591 11.03911478 -12.375 8.75 C-11.41110352 7.77353516 -11.41110352 7.77353516 -10.42773438 6.77734375 C-9.80576172 6.15214844 -9.18378906 5.52695313 -8.54296875 4.8828125 C-7.97215576 4.3067627 -7.40134277 3.73071289 -6.81323242 3.13720703 C-2.90510197 -0.49801748 -2.90510197 -0.49801748 0 0 Z " fill="#7A7A7A" transform="translate(315.1875,69.375)"/>
<path d="M0 0 C0.66 0.33 1.32 0.66 2 1 C1.34 2.32 0.68 3.64 0 5 C-9.24 5 -18.48 5 -28 5 C-28 4.67 -28 4.34 -28 4 C-20.41 4 -12.82 4 -5 4 C-5 3.34 -5 2.68 -5 2 C-2.625 0.9375 -2.625 0.9375 0 0 Z " fill="#C6C6C6" transform="translate(402,256)"/>
<path d="M0 0 C0.66 0.33 1.32 0.66 2 1 C1.3503125 1.5878125 1.3503125 1.5878125 0.6875 2.1875 C-1.11875592 4.00171326 -1.11875592 4.00171326 -2.5 6.5 C-4.88732394 10.47887324 -4.88732394 10.47887324 -7 12 C-8.32 11.67 -9.64 11.34 -11 11 C-7.37 7.37 -3.74 3.74 0 0 Z " fill="#ADADAD" transform="translate(30,12)"/>
<path d="M0 0 C0.33 0 0.66 0 1 0 C1 7.92 1 15.84 1 24 C1.66 24 2.32 24 3 24 C3 24.66 3 25.32 3 26 C1.68 25.67 0.36 25.34 -1 25 C-0.67 16.75 -0.34 8.5 0 0 Z " fill="#898989" transform="translate(317,217)"/>
<path d="M0 0 C0.33 0.99 0.66 1.98 1 3 C-1.31 5.31 -3.62 7.62 -6 10 C-6.33 8.68 -6.66 7.36 -7 6 C-4.69 4.02 -2.38 2.04 0 0 Z " fill="#C3C3C3" transform="translate(268,112)"/>
<path d="M0 0 C3.21043882 1.38188453 5.04936365 2.92421903 7.25 5.625 C8.03117188 6.57246094 8.03117188 6.57246094 8.828125 7.5390625 C9.40820312 8.26222656 9.40820312 8.26222656 10 9 C8.68 9 7.36 9 6 9 C6 8.34 6 7.68 6 7 C5.34 7 4.68 7 4 7 C4 6.34 4 5.68 4 5 C3.34 5 2.68 5 2 5 C1.34 3.35 0.68 1.7 0 0 Z " fill="#A4A4A4" transform="translate(153,129)"/>
<path d="M0 0 C0.99 0.33 1.98 0.66 3 1 C-0.3 4.3 -3.6 7.6 -7 11 C-7.66 10.67 -8.32 10.34 -9 10 C-6.03 6.7 -3.06 3.4 0 0 Z " fill="#6E6E6E" transform="translate(284,60)"/>
<path d="M0 0 C0.556875 0.598125 1.11375 1.19625 1.6875 1.8125 C3.9830665 3.98398183 6.28310946 5.41514718 9 7 C9 7.33 9 7.66 9 8 C7.35 8 5.7 8 4 8 C4 7.34 4 6.68 4 6 C2.68 5.34 1.36 4.68 0 4 C0 2.68 0 1.36 0 0 Z " fill="#9A9A9A" transform="translate(330,253)"/>
<path d="M0 0 C0.33 0.66 0.66 1.32 1 2 C0.401875 2.5775 -0.19625 3.155 -0.8125 3.75 C-3.01623001 5.90766556 -3.01623001 5.90766556 -4.625 8.25 C-5.07875 8.8275 -5.5325 9.405 -6 10 C-6.66 10 -7.32 10 -8 10 C-7.44449305 6.40094092 -6.25112752 5.00090201 -3.4375 2.75 C-2.79683594 2.22921875 -2.15617188 1.7084375 -1.49609375 1.171875 C-1.00238281 0.78515625 -0.50867188 0.3984375 0 0 Z " fill="#AEAEAE" transform="translate(8,34)"/>
<path d="M0 0 C1.14926266 0.95421808 2.29430541 1.91352045 3.4375 2.875 C4.07558594 3.40867188 4.71367187 3.94234375 5.37109375 4.4921875 C7 6 7 6 8 8 C6.68 8 5.36 8 4 8 C4 7.34 4 6.68 4 6 C3.34 6 2.68 6 2 6 C2 5.34 2 4.68 2 4 C1.34 4 0.68 4 0 4 C0 2.68 0 1.36 0 0 Z " fill="#A6A6A6" transform="translate(173,148)"/>
<path d="M0 0 C0.66 0.33 1.32 0.66 2 1 C-0.31 3.31 -2.62 5.62 -5 8 C-5.33 6.68 -5.66 5.36 -6 4 C-4.15840327 1.51384442 -2.99529289 0.99843096 0 0 Z " fill="#999999" transform="translate(453,283)"/>
<path d="M0 0 C0.99 0.33 1.98 0.66 3 1 C0.69 3.31 -1.62 5.62 -4 8 C-4.66 7.67 -5.32 7.34 -6 7 C-4.02 4.69 -2.04 2.38 0 0 Z " fill="#7B7B7B" transform="translate(295,50)"/>
<path d="M0 0 C0.33 0 0.66 0 1 0 C0.67 2.97 0.34 5.94 0 9 C-1.32 9.33 -2.64 9.66 -4 10 C-2.68 6.7 -1.36 3.4 0 0 Z " fill="#A9A9A9" transform="translate(419,235)"/>
<path d="M0 0 C0.99 0.33 1.98 0.66 3 1 C-0.465 3.97 -0.465 3.97 -4 7 C-3.04065919 3.16263678 -2.76390737 2.40339772 0 0 Z " fill="#969696" transform="translate(314,32)"/>
<path d="M0 0 C1.32 0 2.64 0 4 0 C4 0.66 4 1.32 4 2 C4.66 2 5.32 2 6 2 C5.67 3.32 5.34 4.64 5 6 C3.35 4.02 1.7 2.04 0 0 Z " fill="#AEAEAE" transform="translate(282,283)"/>
<path d="M0 0 C1.98 1.65 3.96 3.3 6 5 C4.68 5.33 3.36 5.66 2 6 C2 5.34 2 4.68 2 4 C1.34 4 0.68 4 0 4 C0 2.68 0 1.36 0 0 Z " fill="#9E9E9E" transform="translate(185,160)"/>
<path d="M0 0 C1.98 1.65 3.96 3.3 6 5 C4.68 5.33 3.36 5.66 2 6 C2 5.34 2 4.68 2 4 C1.34 4 0.68 4 0 4 C0 2.68 0 1.36 0 0 Z " fill="#A6A6A6" transform="translate(167,142)"/>
</svg>
