<?xml version="1.0" standalone="no"?>
<!DOCTYPE svg PUBLIC "-//W3C//DTD SVG 20010904//EN"
 "http://www.w3.org/TR/2001/REC-SVG-20010904/DTD/svg10.dtd">
<svg version="1.0" xmlns="http://www.w3.org/2000/svg"
 width="1244.000000pt" height="911.000000pt" viewBox="0 0 1244.000000 911.000000"
 preserveAspectRatio="xMidYMid meet">

<g transform="translate(0.000000,911.000000) scale(0.100000,-0.100000)"
fill="#8d4aea" stroke="none">
<path d="M8126 9021 l-790 -6 -29 -50 c-104 -174 -187 -318 -187 -322 0 -2
-16 -29 -35 -59 -19 -30 -35 -56 -35 -58 0 -3 -19 -37 -43 -78 -24 -40 -55
-93 -69 -118 -14 -25 -50 -88 -80 -140 -30 -52 -66 -115 -80 -140 -14 -25 -85
-146 -158 -270 -178 -302 -167 -283 -221 -386 -51 -98 -86 -202 -91 -274 l-3
-45 595 -6 c858 -9 2796 -10 3641 -2 l726 6 99 176 c54 97 110 196 125 221 32
53 378 649 406 700 11 19 54 94 95 165 96 167 369 657 371 668 1 5 -23 10 -53
11 -127 7 -3458 12 -4184 7z"/>
<path d="M4077 8868 c-57 -57 -84 -95 -137 -198 -19 -36 -41 -76 -51 -90 -9
-14 -27 -45 -41 -70 -14 -25 -41 -72 -60 -105 -98 -168 -303 -524 -321 -555
-10 -19 -23 -39 -27 -45 -4 -5 -19 -30 -32 -55 -14 -25 -59 -104 -101 -177
-42 -72 -85 -147 -95 -165 -27 -46 -113 -196 -262 -453 -70 -121 -138 -238
-150 -260 -12 -22 -55 -96 -95 -165 -40 -69 -82 -141 -92 -160 -11 -19 -54
-94 -96 -167 -42 -72 -85 -147 -95 -165 -11 -18 -51 -89 -91 -157 -39 -68 -71
-125 -71 -128 0 -3 -8 -17 -19 -31 -10 -15 -29 -47 -43 -72 -14 -25 -62 -107
-107 -184 -44 -76 -81 -139 -81 -141 0 -2 -36 -63 -79 -138 -43 -74 -90 -154
-103 -178 -14 -24 -51 -89 -83 -144 -32 -55 -91 -156 -130 -225 -40 -69 -104
-181 -144 -249 -39 -68 -71 -125 -71 -128 0 -3 -8 -17 -19 -31 -16 -23 -160
-271 -239 -411 -13 -24 -60 -104 -103 -178 -43 -75 -79 -137 -79 -140 0 -3 -8
-17 -19 -31 -10 -15 -29 -47 -43 -72 -14 -25 -41 -72 -60 -105 -20 -33 -94
-161 -165 -285 -72 -124 -151 -260 -177 -303 -25 -43 -46 -81 -46 -85 0 -3 -6
-13 -14 -21 -7 -9 -28 -43 -46 -76 -17 -33 -35 -64 -40 -70 -4 -5 -19 -30 -32
-55 -14 -25 -69 -119 -122 -209 -53 -90 -96 -170 -96 -177 0 -6 16 -41 36 -76
20 -34 157 -277 304 -538 318 -566 303 -539 334 -589 15 -22 26 -42 26 -45 0
-22 415 -665 430 -665 3 -1 15 14 27 32 11 17 53 78 93 135 60 88 128 199 232
382 11 19 69 118 128 220 59 102 117 201 128 220 25 44 73 128 144 250 30 52
117 203 193 335 76 132 163 283 193 335 30 52 64 111 75 130 10 19 36 64 57
100 21 36 47 81 57 100 11 19 45 79 76 132 31 53 126 218 211 365 84 147 186
324 226 393 40 69 84 144 97 167 13 24 75 131 138 239 63 108 115 199 115 201
0 3 8 17 19 31 10 15 29 47 43 72 32 58 270 463 411 700 60 102 121 205 135
230 43 77 46 80 76 80 81 0 155 -48 199 -130 23 -43 204 -359 372 -650 98
-169 142 -245 167 -290 20 -34 117 -202 306 -530 52 -91 104 -181 115 -200 10
-19 52 -91 92 -160 40 -69 82 -141 92 -160 19 -32 65 -112 306 -530 49 -85
122 -211 162 -280 39 -69 98 -170 130 -225 32 -55 67 -116 78 -135 10 -19 85
-147 164 -285 80 -137 163 -281 186 -320 22 -38 51 -87 64 -107 12 -21 23 -40
23 -43 0 -3 11 -24 26 -46 14 -22 34 -57 46 -77 24 -44 226 -393 272 -472 18
-30 53 -89 77 -131 l44 -76 560 -6 c1215 -15 2527 -4 2654 22 31 6 42 19 114
136 43 72 89 148 101 170 13 22 48 81 78 130 52 85 253 430 295 505 11 19 60
105 108 190 48 85 99 175 113 200 14 25 28 50 32 55 4 6 23 39 42 75 39 71 75
137 118 215 15 28 40 73 55 100 15 28 39 69 52 93 14 24 22 46 18 50 -11 11
-770 21 -1655 21 -448 0 -980 0 -1181 0 l-365 1 -35 63 c-69 121 -92 161 -170
294 -43 75 -79 137 -79 139 0 3 -11 23 -26 45 -14 22 -33 55 -43 72 -20 36
-264 458 -319 552 -19 33 -46 80 -60 105 -14 25 -33 57 -43 72 -11 14 -19 28
-19 31 0 3 -19 38 -43 79 -24 40 -55 93 -69 118 -14 25 -51 90 -83 145 -32 55
-123 213 -202 350 -216 373 -224 387 -250 427 -12 21 -23 39 -23 42 0 2 -36
64 -79 139 -43 74 -91 156 -106 183 -15 27 -92 162 -172 299 -80 138 -163 282
-186 320 -22 39 -51 87 -64 107 -12 21 -23 40 -23 42 0 2 -27 50 -60 106 -33
56 -60 104 -60 107 0 3 -8 17 -19 31 -10 15 -29 47 -43 72 -23 42 -53 94 -252
438 -185 321 -233 403 -284 492 -71 123 -120 206 -144 250 -11 19 -37 64 -58
100 -21 36 -47 81 -57 100 -19 33 -68 119 -245 425 -41 72 -119 207 -173 300
-54 94 -118 203 -142 243 -23 41 -43 76 -43 78 0 2 -12 23 -27 47 -14 23 -40
67 -57 97 -107 192 -136 238 -184 291 -30 32 -62 59 -72 59 -11 0 -43 -24 -73
-52z"/>
<path d="M7090 5541 c0 -7 39 -80 87 -164 47 -84 97 -172 111 -197 14 -25 34
-61 45 -80 11 -19 46 -80 77 -135 82 -145 98 -173 140 -245 21 -36 47 -81 57
-100 11 -19 53 -91 93 -160 119 -205 141 -243 168 -290 14 -25 33 -57 43 -72
11 -14 19 -29 19 -32 0 -4 17 -35 38 -69 22 -34 88 -144 147 -244 l109 -183
615 0 616 0 49 78 c79 124 256 414 256 419 0 2 15 27 33 56 18 29 122 210 232
402 109 193 253 442 318 555 176 300 167 280 167 377 l0 83 -1282 0 c-706 0
-1475 3 -1710 7 -333 5 -428 4 -428 -6z"/>
</g>
</svg>
